<?xml version="1.0" encoding="UTF-8" standalone="no"?><!DOCTYPE svg PUBLIC "-//W3C//DTD SVG 1.1//EN" "http://www.w3.org/Graphics/SVG/1.1/DTD/svg11.dtd"><!-- Generated by graphviz version 2.40.1 (20161225.0304)
 --><!-- Title: G Pages: 1 --><svg xmlns="http://www.w3.org/2000/svg" xmlns:xlink="http://www.w3.org/1999/xlink" width="639pt" height="1027pt" viewBox="0.00 0.00 639.00 1027.26">
<g id="graph0" class="graph" transform="scale(1 1) rotate(0) translate(4 1023.2626)">
<title>G</title>
<polygon fill="#ffffff" stroke="transparent" points="-4,4 -4,-1023.2626 635,-1023.2626 635,4 -4,4"/>
<g id="clust1" class="cluster">
<title>cluster_N</title>
<polygon fill="none" stroke="#000000" points="115,-762.4626 115,-1011.2626 395,-1011.2626 395,-762.4626 115,-762.4626"/>
<text text-anchor="middle" x="255" y="-994.6626" font-family="Times,serif" font-size="14.00" fill="#000000">NCBI dbGaP</text>
</g>
<g id="clust2" class="cluster">
<title>cluster_G</title>
<polygon fill="none" stroke="#000000" points="403,-191.6313 403,-850.4626 623,-850.4626 623,-191.6313 403,-191.6313"/>
<text text-anchor="middle" x="513" y="-833.8626" font-family="Times,serif" font-size="14.00" fill="#000000">GCloud Console: TOPMed Samples</text>
</g>
<g id="clust4" class="cluster">
<title>cluster_L</title>
<polygon fill="none" stroke="#000000" points="8,-8 8,-612.8626 395,-612.8626 395,-8 8,-8"/>
<text text-anchor="middle" x="201.5" y="-596.2626" font-family="Times,serif" font-size="14.00" fill="#000000">HIPAA Server: Local/TopMed Samples</text>
</g>
<!-- 1 -->
<g id="node1" class="node">
<title>1</title>
<polygon fill="none" stroke="#ffa500" points="386.9734,-978.2645 259.0266,-978.2645 259.0266,-937.0607 386.9734,-937.0607 386.9734,-978.2645"/>
<text text-anchor="middle" x="323" y="-961.8626" font-family="Times,serif" font-size="14.00" fill="#000000">GET NGC TopMed</text>
<text text-anchor="middle" x="323" y="-945.0626" font-family="Times,serif" font-size="14.00" fill="#000000">ACCES KEY</text>
</g>
<!-- 5 -->
<g id="node5" class="node">
<title>5</title>
<polygon fill="none" stroke="#ffa500" points="544.9201,-817.6626 411.0799,-817.6626 411.0799,-781.6626 544.9201,-781.6626 544.9201,-817.6626"/>
<text text-anchor="middle" x="478" y="-795.4626" font-family="Times,serif" font-size="14.00" fill="#000000"> scp Key &amp; Run IDs </text>
</g>
<!-- 1&#45;&gt;5 -->
<g id="edge19" class="edge">
<title>1-&gt;5</title>
<path fill="none" stroke="#000000" stroke-dasharray="5,2" d="M382.0979,-936.9202C382.0979,-893.9128 382.0979,-799 382.0979,-799 382.0979,-799 401.1319,-799 401.1319,-799"/>
<polygon fill="#000000" stroke="#000000" points="401.1319,-802.5001 411.1319,-799 401.1319,-795.5001 401.1319,-802.5001"/>
</g>
<!-- 2 -->
<g id="node2" class="node">
<title>2</title>
<polygon fill="none" stroke="#ffa500" points="240.9856,-975.6626 123.0144,-975.6626 123.0144,-939.6626 240.9856,-939.6626 240.9856,-975.6626"/>
<text text-anchor="middle" x="182" y="-953.4626" font-family="Times,serif" font-size="14.00" fill="#000000">SELECT STUDY</text>
</g>
<!-- 3 -->
<g id="node3" class="node">
<title>3</title>
<polygon fill="none" stroke="#ffa500" points="256.7408,-900.8626 131.2592,-900.8626 131.2592,-864.8626 256.7408,-864.8626 256.7408,-900.8626"/>
<text text-anchor="middle" x="194" y="-878.6626" font-family="Times,serif" font-size="14.00" fill="#000000">GET METADATA</text>
</g>
<!-- 2&#45;&gt;3 -->
<g id="edge1" class="edge">
<title>2-&gt;3</title>
<path fill="none" stroke="#000000" d="M186.061,-939.5556C186.061,-939.5556 186.061,-911.0621 186.061,-911.0621"/>
<polygon fill="#000000" stroke="#000000" points="189.5611,-911.062 186.061,-901.0621 182.5611,-911.0621 189.5611,-911.062"/>
</g>
<!-- 4 -->
<g id="node4" class="node">
<title>4</title>
<polygon fill="#ffa500" stroke="#ffa500" points="280.9124,-829.0639 123.0876,-829.0639 123.0876,-770.2612 280.9124,-770.2612 280.9124,-829.0639"/>
<text text-anchor="middle" x="202" y="-812.2626" font-family="Times,serif" font-size="14.00" fill="#000000">FIlter Run</text>
<text text-anchor="middle" x="202" y="-795.4626" font-family="Times,serif" font-size="14.00" fill="#000000">Sample,sSbject,Sex</text>
<text text-anchor="middle" x="202" y="-778.6626" font-family="Times,serif" font-size="14.00" fill="#000000">Bases,Cvg,RdLen,Center</text>
</g>
<!-- 3&#45;&gt;4 -->
<g id="edge2" class="edge">
<title>3-&gt;4</title>
<path fill="none" stroke="#000000" d="M194,-864.8094C194,-864.8094 194,-839.1293 194,-839.1293"/>
<polygon fill="#000000" stroke="#000000" points="197.5001,-839.1293 194,-829.1293 190.5001,-839.1294 197.5001,-839.1293"/>
</g>
<!-- 6 -->
<g id="node6" class="node">
<title>6</title>
<polygon fill="none" stroke="#ffa500" points="526.6116,-734.2645 427.3884,-734.2645 427.3884,-693.0607 526.6116,-693.0607 526.6116,-734.2645"/>
<text text-anchor="middle" x="477" y="-717.8626" font-family="Times,serif" font-size="14.00" fill="#000000">SELECT Runs</text>
<text text-anchor="middle" x="477" y="-701.0626" font-family="Times,serif" font-size="14.00" fill="#000000">&lt;100</text>
</g>
<!-- 4&#45;&gt;6 -->
<g id="edge20" class="edge">
<title>4-&gt;6</title>
<path fill="none" stroke="#000000" stroke-dasharray="5,2" d="M280.932,-776C356.9222,-776 460.3982,-776 460.3982,-776 460.3982,-776 460.3982,-744.42 460.3982,-744.42"/>
<polygon fill="#000000" stroke="#000000" points="463.8983,-744.42 460.3982,-734.42 456.8983,-744.4201 463.8983,-744.42"/>
</g>
<!-- 19 -->
<g id="node19" class="node">
<title>19</title>
<polygon fill="#ffa500" stroke="#000000" points="178.0875,-57.4019 15.9125,-57.4019 15.9125,-16.1981 178.0875,-16.1981 178.0875,-57.4019"/>
<text text-anchor="middle" x="97" y="-41" font-family="Times,serif" font-size="14.00" fill="#000000">COMPUTE COVERAGE</text>
<text text-anchor="middle" x="97" y="-24.2" font-family="Times,serif" font-size="14.00" fill="#000000">&amp; mtDNA-CN</text>
</g>
<!-- 4&#45;&gt;19 -->
<g id="edge21" class="edge">
<title>4-&gt;19</title>
<path fill="none" stroke="#000000" stroke-dasharray="5,2" d="M123.0587,-799C87.9851,-799 54.4821,-799 54.4821,-799 54.4821,-799 54.4821,-67.5823 54.4821,-67.5823"/>
<polygon fill="#000000" stroke="#000000" points="57.9822,-67.5823 54.4821,-57.5823 50.9822,-67.5823 57.9822,-67.5823"/>
</g>
<!-- 5&#45;&gt;6 -->
<g id="edge3" class="edge">
<title>5-&gt;6</title>
<path fill="none" stroke="#000000" d="M493.6018,-781.4242C493.6018,-781.4242 493.6018,-744.2891 493.6018,-744.2891"/>
<polygon fill="#000000" stroke="#000000" points="497.1019,-744.289 493.6018,-734.2891 490.1019,-744.2891 497.1019,-744.289"/>
</g>
<!-- 7 -->
<g id="node7" class="node">
<title>7</title>
<polygon fill="none" stroke="#000000" points="520.9775,-656.8626 431.0225,-656.8626 431.0225,-620.8626 520.9775,-620.8626 520.9775,-656.8626"/>
<text text-anchor="middle" x="476" y="-634.6626" font-family="Times,serif" font-size="14.00" fill="#000000">fusera mount</text>
</g>
<!-- 6&#45;&gt;7 -->
<g id="edge4" class="edge">
<title>6-&gt;7</title>
<path fill="none" stroke="#000000" d="M476,-692.8266C476,-692.8266 476,-667.0442 476,-667.0442"/>
<polygon fill="#000000" stroke="#000000" points="479.5001,-667.0441 476,-657.0442 472.5001,-667.0442 479.5001,-667.0441"/>
</g>
<!-- 8 -->
<g id="node8" class="node">
<title>8</title>
<ellipse fill="#00ffff" stroke="#0000ff" cx="476" cy="-562.0626" rx="65.4459" ry="18"/>
<text text-anchor="middle" x="476" y="-557.8626" font-family="Times,serif" font-size="14.00" fill="#000000">CRAM/CRAI</text>
</g>
<!-- 7&#45;&gt;8 -->
<g id="edge5" class="edge">
<title>7-&gt;8</title>
<path fill="none" stroke="#000000" d="M476,-620.662C476,-620.662 476,-590.1325 476,-590.1325"/>
<polygon fill="#000000" stroke="#000000" points="479.5001,-590.1324 476,-580.1325 472.5001,-590.1325 479.5001,-590.1324"/>
</g>
<!-- 9 -->
<g id="node9" class="node">
<title>9</title>
<polygon fill="none" stroke="#0000ff" points="532.4188,-508.2639 419.5812,-508.2639 419.5812,-449.4612 532.4188,-449.4612 532.4188,-508.2639"/>
<text text-anchor="middle" x="476" y="-491.4626" font-family="Times,serif" font-size="14.00" fill="#000000">samtools view</text>
<text text-anchor="middle" x="476" y="-474.6626" font-family="Times,serif" font-size="14.00" fill="#000000">-T hs38DH</text>
<text text-anchor="middle" x="476" y="-457.8626" font-family="Times,serif" font-size="14.00" fill="#000000">-F chrM NUMTs</text>
</g>
<!-- 8&#45;&gt;9 -->
<g id="edge6" class="edge">
<title>8-&gt;9</title>
<path fill="none" stroke="#000000" d="M476,-544.0094C476,-544.0094 476,-518.3293 476,-518.3293"/>
<polygon fill="#000000" stroke="#000000" points="479.5001,-518.3293 476,-508.3293 472.5001,-518.3294 479.5001,-518.3293"/>
</g>
<!-- 10 -->
<g id="node10" class="node">
<title>10</title>
<ellipse fill="none" stroke="#0000ff" cx="476" cy="-384.2469" rx="58.1025" ry="29.3315"/>
<text text-anchor="middle" x="476" y="-388.4469" font-family="Times,serif" font-size="14.00" fill="#000000">FILTERED</text>
<text text-anchor="middle" x="476" y="-371.6469" font-family="Times,serif" font-size="14.00" fill="#000000">BAM/BAI</text>
</g>
<!-- 9&#45;&gt;10 -->
<g id="edge7" class="edge">
<title>9-&gt;10</title>
<path fill="none" stroke="#000000" d="M476,-449.4442C476,-449.4442 476,-423.9729 476,-423.9729"/>
<polygon fill="#000000" stroke="#000000" points="479.5001,-423.9729 476,-413.9729 472.5001,-423.973 479.5001,-423.9729"/>
</g>
<!-- 11 -->
<g id="node11" class="node">
<title>11</title>
<polygon fill="none" stroke="#000000" points="524.4774,-318.8313 427.5226,-318.8313 427.5226,-282.8313 524.4774,-282.8313 524.4774,-318.8313"/>
<text text-anchor="middle" x="476" y="-296.6313" font-family="Times,serif" font-size="14.00" fill="#000000">fusera umount</text>
</g>
<!-- 10&#45;&gt;11 -->
<g id="edge8" class="edge">
<title>10-&gt;11</title>
<path fill="none" stroke="#000000" d="M476,-354.6028C476,-354.6028 476,-329.2179 476,-329.2179"/>
<polygon fill="#000000" stroke="#000000" points="479.5001,-329.2178 476,-319.2179 472.5001,-329.2179 479.5001,-329.2178"/>
</g>
<!-- 11&#45;&gt;6 -->
<g id="edge9" class="edge">
<title>11-&gt;6</title>
<path fill="none" stroke="#000000" d="M427.6933,-300C412.2297,-300 399.0341,-300 399.0341,-300 399.0341,-300 399.0341,-713 399.0341,-713 399.0341,-713 417.1816,-713 417.1816,-713"/>
<polygon fill="#000000" stroke="#000000" points="417.1816,-716.5001 427.1816,-713 417.1815,-709.5001 417.1816,-716.5001"/>
</g>
<!-- 12 -->
<g id="node12" class="node">
<title>12</title>
<polygon fill="none" stroke="#000000" points="484,-235.6313 430,-235.6313 430,-199.6313 484,-199.6313 484,-235.6313"/>
<text text-anchor="middle" x="457" y="-213.4313" font-family="Times,serif" font-size="14.00" fill="#000000">scp</text>
</g>
<!-- 11&#45;&gt;12 -->
<g id="edge10" class="edge">
<title>11-&gt;12</title>
<path fill="none" stroke="#000000" d="M457,-282.7781C457,-282.7781 457,-245.6492 457,-245.6492"/>
<polygon fill="#000000" stroke="#000000" points="460.5001,-245.6492 457,-235.6492 453.5001,-245.6492 460.5001,-245.6492"/>
</g>
<!-- 18 -->
<g id="node18" class="node">
<title>18</title>
<ellipse fill="#00ffff" stroke="#00ffff" cx="302" cy="-123.0156" rx="58.1025" ry="29.3315"/>
<text text-anchor="middle" x="302" y="-127.2156" font-family="Times,serif" font-size="14.00" fill="#000000">FILTERED</text>
<text text-anchor="middle" x="302" y="-110.4156" font-family="Times,serif" font-size="14.00" fill="#000000">BAM/BAI</text>
</g>
<!-- 12&#45;&gt;18 -->
<g id="edge22" class="edge">
<title>12-&gt;18</title>
<path fill="none" stroke="#000000" stroke-dasharray="5,2" d="M457,-199.3854C457,-171.8867 457,-123 457,-123 457,-123 370.1573,-123 370.1573,-123"/>
<polygon fill="#000000" stroke="#000000" points="370.1573,-119.5001 360.1573,-123 370.1572,-126.5001 370.1573,-119.5001"/>
</g>
<!-- 13 -->
<g id="node13" class="node">
<title>13</title>
<ellipse fill="#00ff00" stroke="#00ff00" cx="229" cy="-562.0626" rx="69.5601" ry="18"/>
<text text-anchor="middle" x="229" y="-557.8626" font-family="Times,serif" font-size="14.00" fill="#000000">FASTQ FILES</text>
</g>
<!-- 14 -->
<g id="node14" class="node">
<title>14</title>
<polygon fill="none" stroke="#0000ff" points="289.4748,-496.8626 168.5252,-496.8626 168.5252,-460.8626 289.4748,-460.8626 289.4748,-496.8626"/>
<text text-anchor="middle" x="229" y="-474.6626" font-family="Times,serif" font-size="14.00" fill="#000000">bwa mem hs38DH</text>
</g>
<!-- 13&#45;&gt;14 -->
<g id="edge11" class="edge">
<title>13-&gt;14</title>
<path fill="none" stroke="#000000" d="M229,-544.0094C229,-544.0094 229,-506.8805 229,-506.8805"/>
<polygon fill="#000000" stroke="#000000" points="232.5001,-506.8805 229,-496.8805 225.5001,-506.8805 232.5001,-506.8805"/>
</g>
<!-- 15 -->
<g id="node15" class="node">
<title>15</title>
<polygon fill="none" stroke="#0000ff" points="284.3627,-413.6483 173.6373,-413.6483 173.6373,-354.8455 284.3627,-354.8455 284.3627,-413.6483"/>
<text text-anchor="middle" x="229" y="-396.8469" font-family="Times,serif" font-size="14.00" fill="#000000">samtools sort</text>
<text text-anchor="middle" x="229" y="-380.0469" font-family="Times,serif" font-size="14.00" fill="#000000">samtools index</text>
<text text-anchor="middle" x="229" y="-363.2469" font-family="Times,serif" font-size="14.00" fill="#000000">samtools view -c</text>
</g>
<!-- 14&#45;&gt;15 -->
<g id="edge12" class="edge">
<title>14-&gt;15</title>
<path fill="none" stroke="#000000" d="M229,-460.6197C229,-460.6197 229,-423.6006 229,-423.6006"/>
<polygon fill="#000000" stroke="#000000" points="232.5001,-423.6006 229,-413.6006 225.5001,-423.6006 232.5001,-423.6006"/>
</g>
<!-- 16 -->
<g id="node16" class="node">
<title>16</title>
<ellipse fill="none" stroke="#0000ff" cx="304" cy="-300.8313" rx="65.4459" ry="18"/>
<text text-anchor="middle" x="304" y="-296.6313" font-family="Times,serif" font-size="14.00" fill="#000000">CRAM/CRAI</text>
</g>
<!-- 15&#45;&gt;16 -->
<g id="edge13" class="edge">
<title>15-&gt;16</title>
<path fill="none" stroke="#000000" d="M261.6044,-354.6028C261.6044,-354.6028 261.6044,-324.958 261.6044,-324.958"/>
<polygon fill="#000000" stroke="#000000" points="265.1045,-324.958 261.6044,-314.958 258.1045,-324.958 265.1045,-324.958"/>
</g>
<!-- 21 -->
<g id="node21" class="node">
<title>21</title>
<ellipse fill="none" stroke="#ffa500" cx="170" cy="-217.6313" rx="76.9855" ry="18"/>
<text text-anchor="middle" x="170" y="-213.4313" font-family="Times,serif" font-size="14.00" fill="#000000">TOTAL READS</text>
</g>
<!-- 15&#45;&gt;21 -->
<g id="edge18" class="edge">
<title>15-&gt;21</title>
<path fill="none" stroke="#000000" d="M206.1731,-354.8429C206.1731,-354.8429 206.1731,-243.6508 206.1731,-243.6508"/>
<polygon fill="#000000" stroke="#000000" points="209.6732,-243.6508 206.1731,-233.6508 202.6732,-243.6508 209.6732,-243.6508"/>
</g>
<!-- 17 -->
<g id="node17" class="node">
<title>17</title>
<polygon fill="none" stroke="#0000ff" points="377.4188,-247.0327 264.5812,-247.0327 264.5812,-188.2299 377.4188,-188.2299 377.4188,-247.0327"/>
<text text-anchor="middle" x="321" y="-230.2313" font-family="Times,serif" font-size="14.00" fill="#000000">samtools view</text>
<text text-anchor="middle" x="321" y="-213.4313" font-family="Times,serif" font-size="14.00" fill="#000000">-T hs38DH</text>
<text text-anchor="middle" x="321" y="-196.6313" font-family="Times,serif" font-size="14.00" fill="#000000">-F chrM NUMTs</text>
</g>
<!-- 16&#45;&gt;17 -->
<g id="edge14" class="edge">
<title>16-&gt;17</title>
<path fill="none" stroke="#000000" d="M317.0068,-283.1867C317.0068,-283.1867 317.0068,-257.0377 317.0068,-257.0377"/>
<polygon fill="#000000" stroke="#000000" points="320.5069,-257.0376 317.0068,-247.0377 313.5069,-257.0377 320.5069,-257.0376"/>
</g>
<!-- 17&#45;&gt;18 -->
<g id="edge15" class="edge">
<title>17-&gt;18</title>
<path fill="none" stroke="#000000" d="M312.4211,-188.2129C312.4211,-188.2129 312.4211,-162.0908 312.4211,-162.0908"/>
<polygon fill="#000000" stroke="#000000" points="315.9212,-162.0908 312.4211,-152.0908 308.9212,-162.0908 315.9212,-162.0908"/>
</g>
<!-- 18&#45;&gt;19 -->
<g id="edge16" class="edge">
<title>18-&gt;19</title>
<path fill="none" stroke="#000000" d="M243.6477,-123C200.7683,-123 149.9482,-123 149.9482,-123 149.9482,-123 149.9482,-67.6666 149.9482,-67.6666"/>
<polygon fill="#000000" stroke="#000000" points="153.4483,-67.6666 149.9482,-57.6666 146.4483,-67.6667 153.4483,-67.6666"/>
</g>
<!-- 20 -->
<g id="node20" class="node">
<title>20</title>
<polygon fill="#ffff00" stroke="#000000" points="387.0819,-57.4019 196.9181,-57.4019 196.9181,-16.1981 387.0819,-16.1981 387.0819,-57.4019"/>
<text text-anchor="middle" x="292" y="-41" font-family="Times,serif" font-size="14.00" fill="#000000">CALL SNPS</text>
<text text-anchor="middle" x="292" y="-24.2" font-family="Times,serif" font-size="14.00" fill="#000000">COUNT HETEROPLASMIES</text>
</g>
<!-- 18&#45;&gt;20 -->
<g id="edge17" class="edge">
<title>18-&gt;20</title>
<path fill="none" stroke="#000000" d="M302,-93.3451C302,-93.3451 302,-67.5554 302,-67.5554"/>
<polygon fill="#000000" stroke="#000000" points="305.5001,-67.5553 302,-57.5554 298.5001,-67.5554 305.5001,-67.5553"/>
</g>
<!-- 21&#45;&gt;19 -->
<g id="edge23" class="edge">
<title>21-&gt;19</title>
<path fill="none" stroke="#000000" d="M121.6029,-203.4418C121.6029,-203.4418 121.6029,-67.4225 121.6029,-67.4225"/>
<polygon fill="#000000" stroke="#000000" points="125.103,-67.4225 121.6029,-57.4225 118.103,-67.4226 125.103,-67.4225"/>
</g>
</g>
</svg>