<?xml version="1.0" encoding="UTF-8" standalone="no"?><!DOCTYPE svg PUBLIC "-//W3C//DTD SVG 1.1//EN" "http://www.w3.org/Graphics/SVG/1.1/DTD/svg11.dtd"><!-- Generated by graphviz version 2.40.1 (20161225.0304)
 --><!-- Title: G Pages: 1 --><svg xmlns="http://www.w3.org/2000/svg" xmlns:xlink="http://www.w3.org/1999/xlink" width="764pt" height="987pt" viewBox="0.00 0.00 764.22 986.54">
<g id="graph0" class="graph" transform="scale(1 1) rotate(0) translate(4 982.5438)">
<title>G</title>
<polygon fill="#ffffff" stroke="transparent" points="-4,4 -4,-982.5438 760.2173,-982.5438 760.2173,4 -4,4"/>
<!-- 1 -->
<g id="node1" class="node">
<title>1</title>
<ellipse fill="#00ffff" stroke="#000000" cx="425.6364" cy="-902.9032" rx="75.7815" ry="75.7815"/>
<text text-anchor="middle" x="425.6364" y="-923.9032" font-family="Times,serif" font-size="14.00" fill="#000000">MT+NUMTs</text>
<text text-anchor="middle" x="425.6364" y="-907.1032" font-family="Times,serif" font-size="14.00" fill="#000000">FILTERED</text>
<text text-anchor="middle" x="425.6364" y="-890.3032" font-family="Times,serif" font-size="14.00" fill="#000000">ALIGNMENTS</text>
<text text-anchor="middle" x="425.6364" y="-873.5032" font-family="Times,serif" font-size="14.00" fill="#000000">BAM/BAI</text>
</g>
<!-- 8 -->
<g id="node8" class="node">
<title>8</title>
<polygon fill="none" stroke="#0000ff" points="344.8018,-791.0645 254.471,-791.0645 254.471,-749.8607 344.8018,-749.8607 344.8018,-791.0645"/>
<text text-anchor="middle" x="299.6364" y="-774.6626" font-family="Times,serif" font-size="14.00" fill="#000000">SUBSAMLE</text>
<text text-anchor="middle" x="299.6364" y="-757.8626" font-family="Times,serif" font-size="14.00" fill="#000000">~2000x cvg</text>
</g>
<!-- 1&#45;&gt;8 -->
<g id="edge1" class="edge">
<title>1-&gt;8</title>
<path fill="none" stroke="#000000" d="M386.6324,-838C363.418,-838 338.4478,-838 338.4478,-838 338.4478,-838 338.4478,-801.093 338.4478,-801.093"/>
<polygon fill="#000000" stroke="#000000" points="341.9479,-801.093 338.4478,-791.093 334.9479,-801.093 341.9479,-801.093"/>
</g>
<!-- 21 -->
<g id="node15" class="node">
<title>21</title>
<polygon fill="none" stroke="#0000ff" points="470.8018,-791.0645 380.471,-791.0645 380.471,-749.8607 470.8018,-749.8607 470.8018,-791.0645"/>
<text text-anchor="middle" x="425.6364" y="-774.6626" font-family="Times,serif" font-size="14.00" fill="#000000">SUBSAMLE</text>
<text text-anchor="middle" x="425.6364" y="-757.8626" font-family="Times,serif" font-size="14.00" fill="#000000">~400x cvg</text>
</g>
<!-- 1&#45;&gt;21 -->
<g id="edge10" class="edge">
<title>1-&gt;21</title>
<path fill="none" stroke="#000000" stroke-dasharray="1,5" d="M425.6364,-827.0135C425.6364,-827.0135 425.6364,-801.1951 425.6364,-801.1951"/>
<polygon fill="#000000" stroke="#000000" points="429.1365,-801.195 425.6364,-791.1951 422.1365,-801.1951 429.1365,-801.195"/>
</g>
<!-- 2 -->
<g id="node2" class="node">
<title>2</title>
<ellipse fill="#00ff00" stroke="#00ff00" cx="199.6364" cy="-902.9032" rx="132.0813" ry="52.7177"/>
<text text-anchor="middle" x="199.6364" y="-923.5032" font-family="Times,serif" font-size="14.00" fill="#000000">NUMTs:</text>
<text text-anchor="middle" x="199.6364" y="-890.7032" font-family="Times,serif" font-size="14.00" fill="#000000">chr1:629,084-634,422</text>
<text text-anchor="middle" x="199.6364" y="-873.9032" font-family="Times,serif" font-size="14.00" fill="#000000">chr17:22,521,366-22,521,502'</text>
</g>
<!-- 10 -->
<g id="node10" class="node">
<title>10</title>
<polygon fill="none" stroke="#0000ff" points="354.6597,-635.8645 140.6131,-635.8645 140.6131,-594.6607 354.6597,-594.6607 354.6597,-635.8645"/>
<text text-anchor="middle" x="247.6364" y="-619.4626" font-family="Times,serif" font-size="14.00" fill="#000000">bwa index MT+extension+NUMTs</text>
<text text-anchor="middle" x="247.6364" y="-602.6626" font-family="Times,serif" font-size="14.00" fill="#000000">bwa mem</text>
</g>
<!-- 2&#45;&gt;10 -->
<g id="edge14" class="edge">
<title>2-&gt;10</title>
<path fill="none" stroke="#000000" d="M185.3122,-850.4799C185.3122,-850.4799 185.3122,-646.1317 185.3122,-646.1317"/>
<polygon fill="#000000" stroke="#000000" points="188.8123,-646.1317 185.3122,-636.1317 181.8123,-646.1317 188.8123,-646.1317"/>
</g>
<!-- 3 -->
<g id="node3" class="node">
<title>3</title>
<ellipse fill="#00ff00" stroke="#00ff00" cx="645.6364" cy="-902.9032" rx="110.6618" ry="64.4763"/>
<text text-anchor="middle" x="645.6364" y="-931.9032" font-family="Times,serif" font-size="14.00" fill="#000000">MT:</text>
<text text-anchor="middle" x="645.6364" y="-899.1032" font-family="Times,serif" font-size="14.00" fill="#000000">chrM=rCRS</text>
<text text-anchor="middle" x="645.6364" y="-882.3032" font-family="Times,serif" font-size="14.00" fill="#000000">RSRS</text>
<text text-anchor="middle" x="645.6364" y="-865.5032" font-family="Times,serif" font-size="14.00" fill="#000000">SAMPLE CONSENSUS</text>
</g>
<!-- 14 -->
<g id="node14" class="node">
<title>14</title>
<ellipse fill="#00ff00" stroke="#00ff00" cx="661.6364" cy="-29.4156" rx="86.2613" ry="29.3315"/>
<text text-anchor="middle" x="661.6364" y="-33.6156" font-family="Times,serif" font-size="14.00" fill="#000000">GENERATE</text>
<text text-anchor="middle" x="661.6364" y="-16.8156" font-family="Times,serif" font-size="14.00" fill="#000000">MT CONSENSUS</text>
</g>
<!-- 3&#45;&gt;14 -->
<g id="edge15" class="edge">
<title>3-&gt;14</title>
<path fill="none" stroke="#000000" d="M706.7837,-848.9218C706.7837,-848.9218 706.7837,-64.794 706.7837,-64.794"/>
<polygon fill="#000000" stroke="#000000" points="710.2838,-64.794 706.7837,-54.794 703.2838,-64.7941 710.2838,-64.794"/>
</g>
<!-- 23 -->
<g id="node17" class="node">
<title>23</title>
<polygon fill="none" stroke="#0000ff" points="539.5201,-633.2626 463.7527,-633.2626 463.7527,-597.2626 539.5201,-597.2626 539.5201,-633.2626"/>
<text text-anchor="middle" x="501.6364" y="-611.0626" font-family="Times,serif" font-size="14.00" fill="#000000">NUCMER</text>
</g>
<!-- 3&#45;&gt;23 -->
<g id="edge18" class="edge">
<title>3-&gt;23</title>
<path fill="none" stroke="#000000" stroke-dasharray="1,5" d="M605.4711,-842.5493C605.4711,-758.1268 605.4711,-615 605.4711,-615 605.4711,-615 549.711,-615 549.711,-615"/>
<polygon fill="#000000" stroke="#000000" points="549.711,-611.5001 539.711,-615 549.711,-618.5001 549.711,-611.5001"/>
</g>
<!-- 16 -->
<g id="node19" class="node">
<title>16</title>
<polygon fill="none" stroke="#00ff00" points="586.614,-713.4645 514.6588,-713.4645 514.6588,-672.2607 586.614,-672.2607 586.614,-713.4645"/>
<text text-anchor="middle" x="550.6364" y="-697.0626" font-family="Times,serif" font-size="14.00" fill="#000000">EXTEND</text>
<text text-anchor="middle" x="550.6364" y="-680.2626" font-family="Times,serif" font-size="14.00" fill="#000000">300bp 3'</text>
</g>
<!-- 3&#45;&gt;16 -->
<g id="edge16" class="edge">
<title>3-&gt;16</title>
<path fill="none" stroke="#000000" d="M560.8404,-861.4059C560.8404,-861.4059 560.8404,-723.5242 560.8404,-723.5242"/>
<polygon fill="#000000" stroke="#000000" points="564.3405,-723.5242 560.8404,-713.5242 557.3405,-723.5243 564.3405,-723.5242"/>
</g>
<!-- 4 -->
<g id="node4" class="node">
<title>4</title>
<polygon fill="none" stroke="#0000ff" points="421.676,-472.2645 313.5968,-472.2645 313.5968,-431.0607 421.676,-431.0607 421.676,-472.2645"/>
<text text-anchor="middle" x="367.6364" y="-455.8626" font-family="Times,serif" font-size="14.00" fill="#000000">CIRCULARIZE</text>
<text text-anchor="middle" x="367.6364" y="-439.0626" font-family="Times,serif" font-size="14.00" fill="#000000">ALIGNMENTS</text>
</g>
<!-- 12 -->
<g id="node12" class="node">
<title>12</title>
<polygon fill="none" stroke="#ff0000" points="295.7312,-386.2645 189.5416,-386.2645 189.5416,-345.0607 295.7312,-345.0607 295.7312,-386.2645"/>
<text text-anchor="middle" x="242.6364" y="-369.8626" font-family="Times,serif" font-size="14.00" fill="#000000">GATK Mutect2</text>
<text text-anchor="middle" x="242.6364" y="-353.0626" font-family="Times,serif" font-size="14.00" fill="#000000">SNP CALLING</text>
</g>
<!-- 4&#45;&gt;12 -->
<g id="edge6" class="edge">
<title>4-&gt;12</title>
<path fill="none" stroke="#000000" d="M313.5661,-451C309.2774,-451 306.5598,-451 306.5598,-451 306.5598,-451 306.5598,-365 306.5598,-365 306.5598,-365 305.5042,-365 305.5042,-365"/>
<polygon fill="#000000" stroke="#000000" points="306.0042,-361.5001 296.0042,-365 306.0041,-368.5001 306.0042,-361.5001"/>
</g>
<!-- 19 -->
<g id="node20" class="node">
<title>19</title>
<polygon fill="none" stroke="#ff0000" points="420.7312,-386.2645 314.5416,-386.2645 314.5416,-345.0607 420.7312,-345.0607 420.7312,-386.2645"/>
<text text-anchor="middle" x="367.6364" y="-369.8626" font-family="Times,serif" font-size="14.00" fill="#000000">mutserve</text>
<text text-anchor="middle" x="367.6364" y="-353.0626" font-family="Times,serif" font-size="14.00" fill="#000000">SNP CALLING</text>
</g>
<!-- 4&#45;&gt;19 -->
<g id="edge19" class="edge">
<title>4-&gt;19</title>
<path fill="none" stroke="#000000" stroke-dasharray="1,5" d="M367.6364,-430.8444C367.6364,-430.8444 367.6364,-396.2891 367.6364,-396.2891"/>
<polygon fill="#000000" stroke="#000000" points="371.1365,-396.289 367.6364,-386.2891 364.1365,-396.2891 371.1365,-396.289"/>
</g>
<!-- 5 -->
<g id="node5" class="node">
<title>5</title>
<polygon fill="none" stroke="#0000ff" points="97.4096,-481.0639 -.1368,-481.0639 -.1368,-422.2612 97.4096,-422.2612 97.4096,-481.0639"/>
<text text-anchor="middle" x="48.6364" y="-464.2626" font-family="Times,serif" font-size="14.00" fill="#000000">COMPUTE &amp;</text>
<text text-anchor="middle" x="48.6364" y="-447.4626" font-family="Times,serif" font-size="14.00" fill="#000000">CHECK</text>
<text text-anchor="middle" x="48.6364" y="-430.6626" font-family="Times,serif" font-size="14.00" fill="#000000">COVERAGE</text>
</g>
<!-- 6 -->
<g id="node6" class="node">
<title>6</title>
<polygon fill="none" stroke="#ff0000" points="450.1338,-231.0645 285.139,-231.0645 285.139,-189.8607 450.1338,-189.8607 450.1338,-231.0645"/>
<text text-anchor="middle" x="367.6364" y="-214.6626" font-family="Times,serif" font-size="14.00" fill="#000000">FILTER SNPs</text>
<text text-anchor="middle" x="367.6364" y="-197.8626" font-family="Times,serif" font-size="14.00" fill="#000000">frequency cutoffs 3,5,10%</text>
</g>
<!-- 7 -->
<g id="node7" class="node">
<title>7</title>
<polygon fill="none" stroke="#ff0000" points="624.4981,-228.4626 502.7747,-228.4626 502.7747,-192.4626 624.4981,-192.4626 624.4981,-228.4626"/>
<text text-anchor="middle" x="563.6364" y="-206.2626" font-family="Times,serif" font-size="14.00" fill="#000000">VALIDATE SNPs</text>
</g>
<!-- 6&#45;&gt;7 -->
<g id="edge23" class="edge">
<title>6-&gt;7</title>
<path fill="none" stroke="#000000" stroke-dasharray="5,2" d="M449.9061,-216C449.9061,-216 492.7365,-216 492.7365,-216"/>
<polygon fill="#000000" stroke="#000000" points="492.7366,-219.5001 502.7365,-216 492.7365,-212.5001 492.7366,-219.5001"/>
</g>
<!-- 6&#45;&gt;14 -->
<g id="edge9" class="edge">
<title>6-&gt;14</title>
<path fill="none" stroke="#000000" d="M449.995,-204C469.3155,-204 484.3949,-204 484.3949,-204 484.3949,-204 484.3949,-29 484.3949,-29 484.3949,-29 565.0925,-29 565.0925,-29"/>
<polygon fill="#000000" stroke="#000000" points="565.0926,-32.5001 575.0925,-29 565.0925,-25.5001 565.0926,-32.5001"/>
</g>
<!-- 20 -->
<g id="node22" class="node">
<title>20</title>
<ellipse fill="#ffff00" stroke="#ffff00" cx="367.6364" cy="-124.2469" rx="98.3956" ry="29.3315"/>
<text text-anchor="middle" x="367.6364" y="-128.4469" font-family="Times,serif" font-size="14.00" fill="#000000">COUNT</text>
<text text-anchor="middle" x="367.6364" y="-111.6469" font-family="Times,serif" font-size="14.00" fill="#000000">HETEROPLASMIES</text>
</g>
<!-- 6&#45;&gt;20 -->
<g id="edge22" class="edge">
<title>6-&gt;20</title>
<path fill="none" stroke="#000000" d="M367.6364,-189.5922C367.6364,-189.5922 367.6364,-163.7215 367.6364,-163.7215"/>
<polygon fill="#000000" stroke="#000000" points="371.1365,-163.7215 367.6364,-153.7215 364.1365,-163.7215 371.1365,-163.7215"/>
</g>
<!-- 9 -->
<g id="node9" class="node">
<title>9</title>
<polygon fill="none" stroke="#00ff00" points="334.9106,-713.4645 230.3622,-713.4645 230.3622,-672.2607 334.9106,-672.2607 334.9106,-713.4645"/>
<text text-anchor="middle" x="282.6364" y="-697.0626" font-family="Times,serif" font-size="14.00" fill="#000000">BAM-&gt;FASTQ</text>
<text text-anchor="middle" x="282.6364" y="-680.2626" font-family="Times,serif" font-size="14.00" fill="#000000">fastp trimming</text>
</g>
<!-- 8&#45;&gt;9 -->
<g id="edge2" class="edge">
<title>8-&gt;9</title>
<path fill="none" stroke="#000000" d="M294.6637,-749.6672C294.6637,-749.6672 294.6637,-723.7153 294.6637,-723.7153"/>
<polygon fill="#000000" stroke="#000000" points="298.1638,-723.7153 294.6637,-713.7153 291.1638,-723.7154 298.1638,-723.7153"/>
</g>
<!-- 9&#45;&gt;10 -->
<g id="edge3" class="edge">
<title>9-&gt;10</title>
<path fill="none" stroke="#000000" d="M282.6364,-672.0672C282.6364,-672.0672 282.6364,-646.1153 282.6364,-646.1153"/>
<polygon fill="#000000" stroke="#000000" points="286.1365,-646.1153 282.6364,-636.1153 279.1365,-646.1154 286.1365,-646.1153"/>
</g>
<!-- 11 -->
<g id="node11" class="node">
<title>11</title>
<polygon fill="none" stroke="#0000ff" points="299.8688,-558.2645 139.404,-558.2645 139.404,-517.0607 299.8688,-517.0607 299.8688,-558.2645"/>
<text text-anchor="middle" x="219.6364" y="-541.8626" font-family="Times,serif" font-size="14.00" fill="#000000">samtools view -F MT</text>
<text text-anchor="middle" x="219.6364" y="-525.0626" font-family="Times,serif" font-size="14.00" fill="#000000">sam-blaster deduplication</text>
</g>
<!-- 10&#45;&gt;11 -->
<g id="edge4" class="edge">
<title>10-&gt;11</title>
<path fill="none" stroke="#000000" d="M220.0638,-594.4672C220.0638,-594.4672 220.0638,-568.5153 220.0638,-568.5153"/>
<polygon fill="#000000" stroke="#000000" points="223.5638,-568.5153 220.0638,-558.5153 216.5638,-568.5154 223.5638,-568.5153"/>
</g>
<!-- 11&#45;&gt;4 -->
<g id="edge5" class="edge">
<title>11-&gt;4</title>
<path fill="none" stroke="#000000" d="M299.7799,-537C319.022,-537 334.1324,-537 334.1324,-537 334.1324,-537 334.1324,-482.3204 334.1324,-482.3204"/>
<polygon fill="#000000" stroke="#000000" points="337.6325,-482.3203 334.1324,-472.3204 330.6325,-482.3204 337.6325,-482.3203"/>
</g>
<!-- 11&#45;&gt;5 -->
<g id="edge24" class="edge">
<title>11-&gt;5</title>
<path fill="none" stroke="#000000" d="M139.3554,-537C109.3034,-537 82.3094,-537 82.3094,-537 82.3094,-537 82.3094,-491.0309 82.3094,-491.0309"/>
<polygon fill="#000000" stroke="#000000" points="85.8095,-491.0308 82.3094,-481.0309 78.8095,-491.0309 85.8095,-491.0308"/>
</g>
<!-- 15 -->
<g id="node23" class="node">
<title>15</title>
<polygon fill="none" stroke="#0000ff" points="296.0978,-472.2645 115.175,-472.2645 115.175,-431.0607 296.0978,-431.0607 296.0978,-472.2645"/>
<text text-anchor="middle" x="205.6364" y="-455.8626" font-family="Times,serif" font-size="14.00" fill="#000000">VALITDATE CONSENSUS</text>
<text text-anchor="middle" x="205.6364" y="-439.0626" font-family="Times,serif" font-size="14.00" fill="#000000">100% ID &amp; CVG</text>
</g>
<!-- 11&#45;&gt;15 -->
<g id="edge25" class="edge">
<title>11-&gt;15</title>
<path fill="none" stroke="#000000" stroke-dasharray="5,2" d="M217.6935,-516.8444C217.6935,-516.8444 217.6935,-482.2891 217.6935,-482.2891"/>
<polygon fill="#000000" stroke="#000000" points="221.1936,-482.289 217.6935,-472.2891 214.1936,-482.2891 221.1936,-482.289"/>
</g>
<!-- 13 -->
<g id="node13" class="node">
<title>13</title>
<polygon fill="none" stroke="#ff0000" points="462.7238,-308.6645 272.549,-308.6645 272.549,-267.4607 462.7238,-267.4607 462.7238,-308.6645"/>
<text text-anchor="middle" x="367.6364" y="-292.2626" font-family="Times,serif" font-size="14.00" fill="#000000">ANNOTATE SNPs:</text>
<text text-anchor="middle" x="367.6364" y="-275.4626" font-family="Times,serif" font-size="14.00" fill="#000000">HV,HS,HP,HG,NUMT,dbSNP</text>
</g>
<!-- 12&#45;&gt;13 -->
<g id="edge7" class="edge">
<title>12-&gt;13</title>
<path fill="none" stroke="#000000" d="M284.1382,-344.8672C284.1382,-344.8672 284.1382,-318.9153 284.1382,-318.9153"/>
<polygon fill="#000000" stroke="#000000" points="287.6382,-318.9153 284.1382,-308.9153 280.6382,-318.9154 287.6382,-318.9153"/>
</g>
<!-- 17 -->
<g id="node21" class="node">
<title>17</title>
<polygon fill="none" stroke="#ff0000" points="254.6168,-306.0626 182.656,-306.0626 182.656,-270.0626 254.6168,-270.0626 254.6168,-306.0626"/>
<text text-anchor="middle" x="218.6364" y="-283.8626" font-family="Times,serif" font-size="14.00" fill="#000000">haplogrep</text>
</g>
<!-- 12&#45;&gt;17 -->
<g id="edge26" class="edge">
<title>12-&gt;17</title>
<path fill="none" stroke="#000000" d="M211.1018,-344.8672C211.1018,-344.8672 211.1018,-316.2716 211.1018,-316.2716"/>
<polygon fill="#000000" stroke="#000000" points="214.6019,-316.2716 211.1018,-306.2716 207.6019,-316.2717 214.6019,-316.2716"/>
</g>
<!-- 13&#45;&gt;6 -->
<g id="edge8" class="edge">
<title>13-&gt;6</title>
<path fill="none" stroke="#000000" d="M367.6364,-267.2672C367.6364,-267.2672 367.6364,-241.3153 367.6364,-241.3153"/>
<polygon fill="#000000" stroke="#000000" points="371.1365,-241.3153 367.6364,-231.3153 364.1365,-241.3154 371.1365,-241.3153"/>
</g>
<!-- 14&#45;&gt;3 -->
<g id="edge28" class="edge">
<title>14-&gt;3</title>
<path fill="none" stroke="#000000" stroke-dasharray="5,2" d="M665.5503,-58.9787C665.5503,-58.9787 665.5503,-829.3571 665.5503,-829.3571"/>
<polygon fill="#000000" stroke="#000000" points="662.0504,-829.3571 665.5503,-839.3571 669.0504,-829.3571 662.0504,-829.3571"/>
</g>
<!-- 22 -->
<g id="node16" class="node">
<title>22</title>
<polygon fill="none" stroke="#ffa500" points="496.2296,-713.4645 355.0432,-713.4645 355.0432,-672.2607 496.2296,-672.2607 496.2296,-713.4645"/>
<text text-anchor="middle" x="425.6364" y="-697.0626" font-family="Times,serif" font-size="14.00" fill="#000000">Megahit2</text>
<text text-anchor="middle" x="425.6364" y="-680.2626" font-family="Times,serif" font-size="14.00" fill="#000000">DeNovo ASSEMBLY</text>
</g>
<!-- 21&#45;&gt;22 -->
<g id="edge11" class="edge">
<title>21-&gt;22</title>
<path fill="none" stroke="#000000" stroke-dasharray="1,5" d="M425.6364,-749.6672C425.6364,-749.6672 425.6364,-723.7153 425.6364,-723.7153"/>
<polygon fill="#000000" stroke="#000000" points="429.1365,-723.7153 425.6364,-713.7153 422.1365,-723.7154 429.1365,-723.7153"/>
</g>
<!-- 22&#45;&gt;23 -->
<g id="edge12" class="edge">
<title>22-&gt;23</title>
<path fill="none" stroke="#000000" stroke-dasharray="1,5" d="M480.0636,-672.0672C480.0636,-672.0672 480.0636,-643.4716 480.0636,-643.4716"/>
<polygon fill="#000000" stroke="#000000" points="483.5637,-643.4716 480.0636,-633.4716 476.5637,-643.4717 483.5637,-643.4716"/>
</g>
<!-- 24 -->
<g id="node18" class="node">
<title>24</title>
<polygon fill="none" stroke="#0000ff" points="547.4634,-555.6626 455.8094,-555.6626 455.8094,-519.6626 547.4634,-519.6626 547.4634,-555.6626"/>
<text text-anchor="middle" x="501.6364" y="-533.4626" font-family="Times,serif" font-size="14.00" fill="#000000">SHOW SNPs</text>
</g>
<!-- 23&#45;&gt;24 -->
<g id="edge13" class="edge">
<title>23-&gt;24</title>
<path fill="none" stroke="#000000" stroke-dasharray="1,5" d="M501.6364,-596.8725C501.6364,-596.8725 501.6364,-565.9207 501.6364,-565.9207"/>
<polygon fill="#000000" stroke="#000000" points="505.1365,-565.9206 501.6364,-555.9207 498.1365,-565.9207 505.1365,-565.9206"/>
</g>
<!-- 16&#45;&gt;10 -->
<g id="edge17" class="edge">
<title>16-&gt;10</title>
<path fill="none" stroke="#000000" d="M527.1129,-672.066C527.1129,-662.8261 527.1129,-654 527.1129,-654 527.1129,-654 339.9961,-654 339.9961,-654 339.9961,-654 339.9961,-645.9921 339.9961,-645.9921"/>
<polygon fill="#000000" stroke="#000000" points="343.4962,-645.9921 339.9961,-635.9921 336.4962,-645.9922 343.4962,-645.9921"/>
</g>
<!-- 19&#45;&gt;13 -->
<g id="edge20" class="edge">
<title>19-&gt;13</title>
<path fill="none" stroke="#000000" stroke-dasharray="1,5" d="M385.4021,-344.8672C385.4021,-344.8672 385.4021,-318.9153 385.4021,-318.9153"/>
<polygon fill="#000000" stroke="#000000" points="388.9022,-318.9153 385.4021,-308.9153 381.9022,-318.9154 388.9022,-318.9153"/>
</g>
<!-- 19&#45;&gt;17 -->
<g id="edge21" class="edge">
<title>19-&gt;17</title>
<path fill="none" stroke="#000000" stroke-dasharray="1,5" d="M349.8707,-344.902C349.8707,-335.3056 349.8707,-326 349.8707,-326 349.8707,-326 232.8642,-326 232.8642,-326 232.8642,-326 232.8642,-316.1424 232.8642,-316.1424"/>
<polygon fill="#000000" stroke="#000000" points="236.3643,-316.1424 232.8642,-306.1424 229.3643,-316.1425 236.3643,-316.1424"/>
</g>
<!-- 18 -->
<g id="node24" class="node">
<title>18</title>
<ellipse fill="#ffa500" stroke="#ffa500" cx="191.6364" cy="-210.4626" rx="75.8817" ry="18"/>
<text text-anchor="middle" x="191.6364" y="-206.2626" font-family="Times,serif" font-size="14.00" fill="#000000">HAPLOGROUP</text>
</g>
<!-- 17&#45;&gt;18 -->
<g id="edge27" class="edge">
<title>17-&gt;18</title>
<path fill="none" stroke="#000000" d="M218.6364,-269.6725C218.6364,-269.6725 218.6364,-237.3948 218.6364,-237.3948"/>
<polygon fill="#000000" stroke="#000000" points="222.1365,-237.3948 218.6364,-227.3948 215.1365,-237.3949 222.1365,-237.3948"/>
</g>
</g>
</svg>